<svg xmlns="http://www.w3.org/2000/svg" viewBox="0 0 410.6 102.06"><defs><style>.cls-1,.cls-2{fill:#fff;stroke-miterlimit:10;stroke-width:3px;}.cls-1{stroke:#000;}.cls-2{stroke:#020202;}</style></defs><title>BCLogo_1</title><g id="Capa_2" data-name="Capa 2"><g id="Capa_1-2" data-name="Capa 1"><polygon class="cls-1" points="74.42 100.05 2.15 78.64 1.51 25.19 73.24 2.05 74.42 100.05"/><polygon class="cls-2" points="74.42 100.05 146.68 78.64 147.32 25.19 75.59 2.05 74.42 100.05"/><path d="M63.25,58.94a15.35,15.35,0,0,1-3.58,10.21A12.08,12.08,0,0,1,50,73.62c-1.45,0-3.65,0-6.57-.1s-5.12-.1-6.57-.1c-1.07,0-2.68,0-4.83.14s-3.76.13-4.83.13c-.57,0-.86-.26-.86-.78q0-3.76.36-11.29c.24-5,.36-8.78.36-11.28s-.12-6.6-.36-11.9-.36-9.25-.36-11.89c0-.5.29-.76.86-.76l9.15,0,9.18,0q7.17,0,11.44,2.67Q62.2,31.77,62.2,38.6a10.38,10.38,0,0,1-1.37,4.9,10.44,10.44,0,0,1-3.31,3.84c-.66.43-1,.71-1,.85s.33.39,1,.75a10.63,10.63,0,0,1,4.16,4.22A11.55,11.55,0,0,1,63.25,58.94ZM53.66,39.35a6.36,6.36,0,0,0-4.3-6.49q-2.59-1-8.5-1c-3.82,0-5.74.29-5.74.86,0,.75,0,1.87-.1,3.38s-.1,2.64-.1,3.41c0,.52,0,1.33,0,2.42s0,1.91,0,2.46,2.57,1,7.71,1Q53.66,45.39,53.66,39.35Zm.92,19.25A5.54,5.54,0,0,0,50.86,53a20.78,20.78,0,0,0-7.34-1q-8.6,0-8.6.93v5.59c0,.82,0,2.08.07,3.76s.07,2.95.07,3.79c0,.23.72.4,2.18.51s3.62.17,6.49.17c3.59,0,6.18-.46,7.75-1.4Q54.58,63.51,54.58,58.6Z"/><path d="M127.94,65.81a2.18,2.18,0,0,1-.65,1.16,20.93,20.93,0,0,1-16.49,7.71q-10.23,0-16.38-7.47-5.74-7-5.74-17.42t5.84-17.47a20.15,20.15,0,0,1,16.42-7.58q10.35,0,16,7a2.16,2.16,0,0,1,.55,1.19,12.26,12.26,0,0,1-1.81,3.43q-1.81,2.85-2.19,2.85c-.29,0-1-.56-2.08-1.67a18.16,18.16,0,0,0-3.79-3.07,12.84,12.84,0,0,0-6.49-1.68A12.25,12.25,0,0,0,100.63,38a19.25,19.25,0,0,0-3.35,11.61,19.88,19.88,0,0,0,3.32,11.71,12.13,12.13,0,0,0,10.48,5.29,13.38,13.38,0,0,0,6.45-1.68,19.22,19.22,0,0,0,4.16-3.1,11.37,11.37,0,0,1,2-1.67,15,15,0,0,1,2.25,2.71A16.64,16.64,0,0,1,127.94,65.81Z"/><path d="M157.57,7.85h18.09A17.21,17.21,0,0,1,183,9.05a10.58,10.58,0,0,1,4,3.41,9,9,0,0,1,1.6,5.4q0,6.45-7,8.61a10,10,0,0,1,6.06,3.62,9.68,9.68,0,0,1,2,5.89,10.08,10.08,0,0,1-3.3,7.53q-3.3,3.18-10.73,3.18H157.57Zm9.07,6.86v8.51h6.89q3.78,0,4.76-1.5a5.2,5.2,0,0,0,1-2.86,4,4,0,0,0-.82-2.54A3.47,3.47,0,0,0,176.69,15a17.25,17.25,0,0,0-3.82-.27Zm0,15.42v9.36h7c2.38,0,4.07-.42,5.05-1.25a4.36,4.36,0,0,0,1.48-3.5,4.41,4.41,0,0,0-1.42-3.25q-1.43-1.36-4.71-1.36Z"/><path d="M203.6,7.06v8.47h-8.48V7.06Zm0,10.89V46.69h-8.48V18Z"/><path d="M219.05,7.85V21.57a7.54,7.54,0,0,1,7.11-4.21,9.12,9.12,0,0,1,7.82,4q2.88,4,2.88,11,0,6.72-3,10.84a11.15,11.15,0,0,1-13.25,3.13,11,11,0,0,1-3.66-4q-.81.82-1.9,4.41h-4.52V7.85Zm0,27.46a7.05,7.05,0,0,0,1.26,4.55,3.85,3.85,0,0,0,3,1.54,4.14,4.14,0,0,0,3.47-1.87c.92-1.24,1.37-3.65,1.37-7.24q0-6.12-1.41-7.68a4.22,4.22,0,0,0-3.2-1.56,3.82,3.82,0,0,0-3.3,1.76,8.77,8.77,0,0,0-1.22,5Z"/><path d="M242.29,46.69V7.85h8.48V46.69Z"/><path d="M266.22,7.06v8.47h-8.48V7.06Zm0,10.89V46.69h-8.48V18Z"/><path d="M285.09,17.36q6.57,0,10.25,4.29A16,16,0,0,1,299,32.41,15.33,15.33,0,0,1,295.2,43,13,13,0,0,1,285,47.28a12.37,12.37,0,0,1-9.82-4.21,15.78,15.78,0,0,1-3.68-10.81,16.72,16.72,0,0,1,1.66-7.78,13.87,13.87,0,0,1,4.56-5.16A12.79,12.79,0,0,1,285.09,17.36Zm.23,5.54a4,4,0,0,0-3.63,1.87q-1.21,1.86-1.22,7.41,0,5.09,1.16,7.31a3.85,3.85,0,0,0,3.63,2.22,4.09,4.09,0,0,0,3.49-1.89q1.33-1.89,1.34-7.22c0-3.77-.4-6.33-1.18-7.68A3.9,3.9,0,0,0,285.32,22.9Z"/><path d="M313.93,24.55V36.7a4.8,4.8,0,0,0,.68,3c.45.51,1.52.76,3.2.76.77,0,1.67,0,2.69-.11v6.29a37.31,37.31,0,0,1-5.32.62q-5.3,0-7.51-2t-2.22-7.36V24.55H300.9V18h5l.68-8.47,7.32-.57v9h6.17v6.6Z"/><path d="M350.37,33.74H331.88c0,.51,0,1,0,1.34a6.11,6.11,0,0,0,1.64,4.64,5.46,5.46,0,0,0,3.91,1.56q4.23,0,5.09-4.52l7.68.57q-3.21,10-13.06,10a14.4,14.4,0,0,1-7.29-1.72,13.41,13.41,0,0,1-4.95-5,15.26,15.26,0,0,1-1.95-7.91q0-6.86,3.91-11.06a13.83,13.83,0,0,1,19.57-.3Q350.38,25.19,350.37,33.74Zm-18.52-4.92h10.21c-.26-3.94-1.88-5.92-4.86-5.92C334,22.9,332.23,24.88,331.85,28.82Z"/><path d="M381,35.9a12.08,12.08,0,0,1-4,8.24,13.24,13.24,0,0,1-9.15,3.14,13.06,13.06,0,0,1-9.91-4q-3.84-4-3.83-10.77A15.4,15.4,0,0,1,358,21.55a13.6,13.6,0,0,1,10.46-4.19,12.48,12.48,0,0,1,8.72,3.15A11.54,11.54,0,0,1,381,28.42l-7.91.46q-.39-5.18-4.49-5.18-5,0-5,8.25,0,5.49,1.41,7a4.54,4.54,0,0,0,3.43,1.48q3.93,0,4.69-5Z"/><path d="M410.6,46.69h-8.22a20.24,20.24,0,0,1-.4-4.5,11.82,11.82,0,0,1-4.31,4.08,11.19,11.19,0,0,1-4.87,1,9.51,9.51,0,0,1-6.52-2.19,7.47,7.47,0,0,1-2.48-5.89,9,9,0,0,1,1.45-5,9.44,9.44,0,0,1,4.66-3.57q3.21-1.31,11.7-1.92V27.09q0-4.18-4.17-4.19-4.45,0-5,4.19l-7.83-.74a8.89,8.89,0,0,1,4.64-7,18.5,18.5,0,0,1,8.76-2,21.41,21.41,0,0,1,5.52.68,9.16,9.16,0,0,1,4,2.05,7.09,7.09,0,0,1,2,2.88,18.86,18.86,0,0,1,.52,5.31v13A19.94,19.94,0,0,0,410.6,46.69Zm-9-13.77q-8.88.88-8.88,5.37a3.86,3.86,0,0,0,.94,2.61A3.3,3.3,0,0,0,396.33,42a4.66,4.66,0,0,0,3.76-1.86,7,7,0,0,0,1.52-4.6Z"/><path d="M188.89,68.93l-9.53.59q-.2-8.22-6.41-8.22-7.14,0-7.13,12.66c0,4.88.64,8.18,1.94,9.92a6.36,6.36,0,0,0,5.41,2.6q5.66,0,6.9-7.34l8.82.54q-.85,7-5.19,10.6a17.42,17.42,0,0,1-23.16-1.7q-4.81-5.31-4.82-14.7,0-8.8,4.66-14.4t12.75-5.6Q187.13,53.88,188.89,68.93Z"/><path d="M219.53,80.36H201c0,.51,0,1,0,1.34a6.14,6.14,0,0,0,1.64,4.64,5.46,5.46,0,0,0,3.91,1.56q4.23,0,5.09-4.52l7.68.57q-3.21,10-13.06,10A14.4,14.4,0,0,1,199,92.18a13.41,13.41,0,0,1-4.95-5,15.26,15.26,0,0,1-1.95-7.91q0-6.85,3.91-11.06a13.83,13.83,0,0,1,19.57-.3Q219.54,71.81,219.53,80.36ZM201,75.44h10.21c-.26-3.94-1.88-5.92-4.86-5.92C203.17,69.52,201.39,71.5,201,75.44Z"/><path d="M249.86,93.31h-8.48V77.18a23.34,23.34,0,0,0-.23-4A3.21,3.21,0,0,0,240,71.33a3.28,3.28,0,0,0-2.22-.75q-4.45,0-4.46,6.6V93.31h-8.48V64.57h7.88v4.87c1.31-2.32,2.6-3.8,3.87-4.47a8.79,8.79,0,0,1,4.12-1,9.59,9.59,0,0,1,6.6,2.2q2.51,2.2,2.51,8.66Z"/><path d="M266.42,71.17V83.32a4.8,4.8,0,0,0,.68,3.05c.45.51,1.52.76,3.2.76.77,0,1.67,0,2.69-.11v6.29a37.31,37.31,0,0,1-5.32.62q-5.3,0-7.51-2t-2.22-7.36V71.17h-4.55v-6.6h5l.68-8.48,7.32-.56v9h6.17v6.6Z"/><path d="M285.56,93.31h-8.22V64.57h7.77v5.35q1.78-6,6.2-6c.42,0,.93,0,1.54.08V72.4a8.42,8.42,0,0,0-4,.79,5.79,5.79,0,0,0-2.35,2.86,14.16,14.16,0,0,0-.91,5.56Z"/><path d="M322.63,93.31h-8.22a20.24,20.24,0,0,1-.4-4.5,11.8,11.8,0,0,1-4.3,4.08,11.22,11.22,0,0,1-4.87,1,9.49,9.49,0,0,1-6.52-2.19,7.44,7.44,0,0,1-2.49-5.89,9,9,0,0,1,1.45-5,9.49,9.49,0,0,1,4.66-3.57q3.21-1.31,11.7-1.93V73.7c0-2.78-1.39-4.18-4.17-4.18-3,0-4.62,1.4-5,4.18L296.69,73a8.88,8.88,0,0,1,4.63-7,18.51,18.51,0,0,1,8.77-2,21.28,21.28,0,0,1,5.51.68,9.11,9.11,0,0,1,4,2,7.12,7.12,0,0,1,2,2.88,19,19,0,0,1,.51,5.31v13A19.94,19.94,0,0,0,322.63,93.31Zm-9-13.77c-5.92.58-8.87,2.38-8.87,5.37a3.9,3.9,0,0,0,.93,2.61,3.32,3.32,0,0,0,2.67,1.09,4.66,4.66,0,0,0,3.75-1.86,7,7,0,0,0,1.52-4.6Z"/><path d="M329.12,93.31V54.47h8.48V93.31Z"/></g></g></svg>