<svg xmlns="http://www.w3.org/2000/svg" viewBox="0 0 403.08 102.06"><defs><style>.cls-1,.cls-2{fill:#fff;stroke-miterlimit:10;stroke-width:3px;}.cls-1{stroke:#000;}.cls-2{stroke:#020202;}</style></defs><title>BCLogo</title><g id="Capa_2" data-name="Capa 2"><g id="Capa_1-2" data-name="Capa 1"><polygon class="cls-1" points="74.42 100.05 2.15 78.64 1.51 25.19 73.24 2.05 74.42 100.05"/><polygon class="cls-2" points="74.42 100.05 146.68 78.64 147.32 25.19 75.59 2.05 74.42 100.05"/><path d="M63.25,58.94a15.35,15.35,0,0,1-3.58,10.21A12.08,12.08,0,0,1,50,73.62c-1.45,0-3.65,0-6.57-.1s-5.12-.1-6.57-.1c-1.07,0-2.68,0-4.83.14s-3.76.13-4.83.13c-.57,0-.86-.26-.86-.78q0-3.76.36-11.29c.24-5,.36-8.78.36-11.28s-.12-6.6-.36-11.9-.36-9.25-.36-11.89c0-.5.29-.76.86-.76l9.15,0,9.18,0q7.17,0,11.44,2.67Q62.2,31.77,62.2,38.6a10.38,10.38,0,0,1-1.37,4.9,10.44,10.44,0,0,1-3.31,3.84c-.66.43-1,.71-1,.85s.33.39,1,.75a10.63,10.63,0,0,1,4.16,4.22A11.55,11.55,0,0,1,63.25,58.94ZM53.66,39.35a6.36,6.36,0,0,0-4.3-6.49q-2.59-1-8.5-1c-3.82,0-5.74.29-5.74.86,0,.75,0,1.87-.1,3.38s-.1,2.64-.1,3.41c0,.52,0,1.33,0,2.42s0,1.91,0,2.46,2.57,1,7.71,1Q53.66,45.39,53.66,39.35Zm.92,19.25A5.54,5.54,0,0,0,50.86,53a20.78,20.78,0,0,0-7.34-1q-8.6,0-8.6.93v5.59c0,.82,0,2.08.07,3.76s.07,2.95.07,3.79c0,.23.72.4,2.18.51s3.62.17,6.49.17c3.59,0,6.18-.46,7.75-1.4Q54.58,63.51,54.58,58.6Z"/><path d="M127.94,65.81a2.18,2.18,0,0,1-.65,1.16,20.93,20.93,0,0,1-16.49,7.71q-10.23,0-16.38-7.47-5.74-7-5.74-17.42t5.84-17.47a20.15,20.15,0,0,1,16.42-7.58q10.35,0,16,7a2.16,2.16,0,0,1,.55,1.19,12.26,12.26,0,0,1-1.81,3.43q-1.81,2.85-2.19,2.85c-.29,0-1-.56-2.08-1.67a18.16,18.16,0,0,0-3.79-3.07,12.84,12.84,0,0,0-6.49-1.68A12.25,12.25,0,0,0,100.63,38a19.25,19.25,0,0,0-3.35,11.61,19.88,19.88,0,0,0,3.32,11.71,12.13,12.13,0,0,0,10.48,5.29,13.38,13.38,0,0,0,6.45-1.68,19.22,19.22,0,0,0,4.16-3.1,11.37,11.37,0,0,1,2-1.67,15,15,0,0,1,2.25,2.71A16.64,16.64,0,0,1,127.94,65.81Z"/><path d="M169.43,10.44h16.71a15.92,15.92,0,0,1,6.75,1.11,9.79,9.79,0,0,1,3.73,3.15,8.29,8.29,0,0,1,1.47,5q0,6-6.46,8A9.17,9.17,0,0,1,197.22,31a8.92,8.92,0,0,1,1.87,5.44A9.32,9.32,0,0,1,196,43.37q-3,2.94-9.9,2.93H169.43Zm8.38,6.34v7.85h6.35q3.5,0,4.41-1.38a4.86,4.86,0,0,0,.9-2.64,3.77,3.77,0,0,0-.75-2.35A3.19,3.19,0,0,0,187.08,17a16.41,16.41,0,0,0-3.52-.24Zm0,14.23v8.65h6.45c2.2,0,3.75-.39,4.66-1.16a4.28,4.28,0,0,0,.06-6.22c-.88-.85-2.33-1.27-4.36-1.27Z"/><path d="M211.93,9.71v7.83H204.1V9.71Zm0,10.06V46.3H204.1V19.77Z"/><path d="M226.2,10.44V23.11a7,7,0,0,1,6.57-3.89A8.43,8.43,0,0,1,240,22.91q2.65,3.69,2.65,10.13,0,6.2-2.73,10a10.26,10.26,0,0,1-12.23,2.89,10.21,10.21,0,0,1-3.39-3.71,12.21,12.21,0,0,0-1.74,4.07h-4.18V10.44Zm0,25.36a6.49,6.49,0,0,0,1.17,4.2,3.54,3.54,0,0,0,2.8,1.42,3.84,3.84,0,0,0,3.2-1.72Q234.63,38,234.63,33c0-3.76-.43-6.13-1.3-7.09a3.88,3.88,0,0,0-3-1.45,3.54,3.54,0,0,0-3,1.63,8.1,8.1,0,0,0-1.13,4.63Z"/><path d="M247.66,46.3V10.44h7.83V46.3Z"/><path d="M269.76,9.71v7.83h-7.83V9.71Zm0,10.06V46.3h-7.83V19.77Z"/><path d="M287.19,19.22q6.06,0,9.46,4a14.74,14.74,0,0,1,3.4,9.93,14.15,14.15,0,0,1-3.53,9.81,12,12,0,0,1-9.38,3.93A11.45,11.45,0,0,1,278.07,43a14.6,14.6,0,0,1-3.4-10,15.45,15.45,0,0,1,1.53-7.18A12.8,12.8,0,0,1,280.42,21,11.79,11.79,0,0,1,287.19,19.22Zm.21,5.12A3.78,3.78,0,0,0,284,26.06q-1.12,1.73-1.12,6.85,0,4.7,1.07,6.75a3.57,3.57,0,0,0,3.36,2.05A3.79,3.79,0,0,0,290.57,40q1.23-1.74,1.23-6.66,0-5.23-1.09-7.09A3.57,3.57,0,0,0,287.4,24.34Z"/><path d="M313.81,25.86V37.08a4.43,4.43,0,0,0,.63,2.81c.42.48,1.4.71,3,.71.71,0,1.54,0,2.48-.1v5.8a33,33,0,0,1-4.91.58c-3.26,0-5.57-.62-6.94-1.88s-2-3.51-2-6.79V25.86h-4.2V19.77h4.65l.63-7.83,6.75-.52v8.35h5.7v6.09Z"/><path d="M347.47,34.35H330.39c0,.47,0,.89,0,1.24a5.69,5.69,0,0,0,1.51,4.28,5.08,5.08,0,0,0,3.62,1.44c2.61,0,4.17-1.39,4.7-4.17l7.09.52q-3,9.2-12.06,9.2a13.3,13.3,0,0,1-6.73-1.59,12.59,12.59,0,0,1-4.58-4.64,14.21,14.21,0,0,1-1.79-7.3,14.4,14.4,0,0,1,3.61-10.22,12.76,12.76,0,0,1,18.07-.28Q347.48,26.45,347.47,34.35Zm-17.11-4.54h9.44q-.37-5.47-4.5-5.47Q330.89,24.34,330.36,29.81Z"/><path d="M375.73,36.35A11.13,11.13,0,0,1,372,44a12.24,12.24,0,0,1-8.45,2.91,12,12,0,0,1-9.15-3.72q-3.54-3.72-3.54-10a14.26,14.26,0,0,1,3.61-10.1,12.59,12.59,0,0,1,9.66-3.87,11.49,11.49,0,0,1,8.05,2.91,10.64,10.64,0,0,1,3.53,7.31l-7.3.42c-.24-3.19-1.63-4.78-4.15-4.78q-4.65,0-4.65,7.62,0,5.07,1.3,6.43a4.22,4.22,0,0,0,3.17,1.37c2.41,0,3.86-1.53,4.33-4.6Z"/><path d="M403.08,46.3h-7.59a19.18,19.18,0,0,1-.37-4.15,10.86,10.86,0,0,1-4,3.77,10.47,10.47,0,0,1-4.5.94,8.77,8.77,0,0,1-6-2,6.88,6.88,0,0,1-2.29-5.44,8.38,8.38,0,0,1,1.33-4.59,8.81,8.81,0,0,1,4.3-3.3q3-1.2,10.81-1.77V28.2q0-3.86-3.85-3.86-4.11,0-4.58,3.86l-7.23-.68a8.21,8.21,0,0,1,4.29-6.41,17,17,0,0,1,8.09-1.89,19.88,19.88,0,0,1,5.09.63,8.46,8.46,0,0,1,3.73,1.89,6.58,6.58,0,0,1,1.82,2.67,17.56,17.56,0,0,1,.47,4.9v12A18.48,18.48,0,0,0,403.08,46.3Zm-8.3-12.71q-8.19.81-8.2,5a3.59,3.59,0,0,0,.87,2.41,3.08,3.08,0,0,0,2.46,1,4.29,4.29,0,0,0,3.47-1.72,6.52,6.52,0,0,0,1.4-4.24Z"/><path d="M198.35,66.84l-8.8.55q-.18-7.59-5.92-7.59-6.58,0-6.58,11.69,0,6.75,1.78,9.16a5.91,5.91,0,0,0,5,2.4q5.21,0,6.37-6.78l8.14.5q-.78,6.44-4.79,9.79A16.07,16.07,0,0,1,172.17,85q-4.46-4.9-4.45-13.58,0-8.11,4.31-13.29t11.77-5.18Q196.71,52.94,198.35,66.84Z"/><path d="M226.65,77.4H209.57c0,.47,0,.89,0,1.24a5.68,5.68,0,0,0,1.51,4.28,5.06,5.06,0,0,0,3.62,1.44q3.9,0,4.7-4.17l7.09.52q-3,9.2-12.06,9.2a13.36,13.36,0,0,1-6.74-1.59,12.64,12.64,0,0,1-4.57-4.64,14.11,14.11,0,0,1-1.8-7.3,14.41,14.41,0,0,1,3.62-10.22A12.76,12.76,0,0,1,223,65.88Q226.64,69.5,226.65,77.4Zm-17.11-4.54H219q-.36-5.48-4.49-5.47Q210.07,67.39,209.54,72.86Z"/><path d="M254.65,89.35h-7.83V74.46a21.49,21.49,0,0,0-.21-3.71,3,3,0,0,0-1-1.69,3.09,3.09,0,0,0-2.05-.7c-2.75,0-4.13,2-4.13,6.1V89.35h-7.83V62.82h7.28v4.49a10.19,10.19,0,0,1,3.57-4.12,8.18,8.18,0,0,1,3.81-.92,8.87,8.87,0,0,1,6.1,2c1.54,1.35,2.31,4,2.31,8Z"/><path d="M269.94,68.92V80.13a4.41,4.41,0,0,0,.63,2.81c.42.48,1.4.71,2.95.71.72,0,1.55,0,2.49-.1v5.8a33.18,33.18,0,0,1-4.91.58c-3.26,0-5.57-.62-6.94-1.88s-2.05-3.51-2.05-6.79V68.92h-4.2v-6.1h4.65l.63-7.83,6.75-.52v8.35h5.7v6.1Z"/><path d="M287.62,89.35H280V62.82h7.17v4.94q1.65-5.52,5.73-5.52c.38,0,.86,0,1.42.08V70a7.73,7.73,0,0,0-3.72.74,5.29,5.29,0,0,0-2.17,2.64,13,13,0,0,0-.84,5.14Z"/><path d="M321.85,89.35h-7.59a18.56,18.56,0,0,1-.37-4.15,10.86,10.86,0,0,1-4,3.77,10.47,10.47,0,0,1-4.5.94,8.77,8.77,0,0,1-6-2,6.87,6.87,0,0,1-2.3-5.43,8.4,8.4,0,0,1,1.34-4.6,8.81,8.81,0,0,1,4.3-3.3q3-1.2,10.81-1.77V71.25q0-3.85-3.85-3.86-4.11,0-4.58,3.86l-7.23-.68a8.23,8.23,0,0,1,4.28-6.41,17.07,17.07,0,0,1,8.1-1.89,19.88,19.88,0,0,1,5.09.63,8.46,8.46,0,0,1,3.73,1.89,6.58,6.58,0,0,1,1.82,2.67,17.61,17.61,0,0,1,.47,4.9v12A18.48,18.48,0,0,0,321.85,89.35Zm-8.3-12.71q-8.19.81-8.2,5a3.58,3.58,0,0,0,.87,2.4,3.05,3.05,0,0,0,2.46,1,4.31,4.31,0,0,0,3.47-1.72,6.52,6.52,0,0,0,1.4-4.24Z"/><path d="M327.84,89.35V53.49h7.83V89.35Z"/></g></g></svg>