<svg xmlns="http://www.w3.org/2000/svg" viewBox="0 0 396.49 93.37"><defs><style>.cls-1{fill:#fff;stroke:#000;stroke-miterlimit:10;stroke-width:6.73px;}</style></defs><title>BPLogo</title><g id="Capa_2" data-name="Capa 2"><g id="Capa_1-2" data-name="Capa 1"><polygon class="cls-1" points="78.92 3.36 28.9 3.36 3.88 46.69 28.9 90.01 78.92 90.01 103.94 46.69 78.92 3.36"/><path d="M48.9,40.66a9.76,9.76,0,0,1-3.62,8.16q-3.62,2.86-10.36,2.86H30.8V65.43H26.74v-35H35.8Q48.91,30.47,48.9,40.66ZM30.8,48.19h3.66q5.4,0,7.82-1.75t2.42-5.59a6,6,0,0,0-2.28-5.16c-1.51-1.14-3.87-1.7-7.07-1.7H30.8Z"/><path d="M71.59,47.11H83.47v17a37.9,37.9,0,0,1-5.64,1.34,43.36,43.36,0,0,1-6.65.45q-7.94,0-12.36-4.72C55.88,58,54.4,53.62,54.4,48a20,20,0,0,1,2.19-9.55,14.81,14.81,0,0,1,6.3-6.26A20.3,20.3,0,0,1,72.52,30,26.38,26.38,0,0,1,83,32l-1.58,3.58a23.44,23.44,0,0,0-9.11-2q-6.39,0-10,3.8T58.7,48q0,7.08,3.46,10.73t10.15,3.66a30.57,30.57,0,0,0,7.1-.83V50.75H71.59Z"/><path d="M115.94,1.81H136q5.4,0,8.11,1.32a11.83,11.83,0,0,1,4.47,3.78,10,10,0,0,1,1.77,6q0,7.16-7.76,9.55a11.07,11.07,0,0,1,6.72,4A10.71,10.71,0,0,1,151.54,33a11.2,11.2,0,0,1-3.66,8.35q-3.66,3.51-11.89,3.52H115.94ZM126,9.4v9.43h7.63q4.19,0,5.28-1.66A5.84,5.84,0,0,0,140,14a4.53,4.53,0,0,0-.9-2.82,3.9,3.9,0,0,0-2-1.48,19,19,0,0,0-4.23-.3Zm0,17.09V36.86h7.74q4,0,5.6-1.39A5.16,5.16,0,0,0,139.4,28q-1.58-1.52-5.22-1.51Z"/><path d="M167,.92v9.4h-9.39V.92ZM167,13V44.84h-9.39V13Z"/><path d="M184.07,1.81V17A8.37,8.37,0,0,1,192,12.33a10.13,10.13,0,0,1,8.67,4.43q3.18,4.44,3.18,12.16,0,7.44-3.27,12a11,11,0,0,1-9.46,4.57,10.75,10.75,0,0,1-5.22-1.11A12.07,12.07,0,0,1,181.78,40q-.89.91-2.09,4.89h-5v-43Zm0,30.42a7.81,7.81,0,0,0,1.4,5,4.21,4.21,0,0,0,3.36,1.7,4.59,4.59,0,0,0,3.84-2.06c1-1.38,1.52-4,1.52-8q0-6.76-1.56-8.51a4.7,4.7,0,0,0-3.55-1.73,4.25,4.25,0,0,0-3.66,1.95,9.73,9.73,0,0,0-1.35,5.55Z"/><path d="M209.82,44.84v-43h9.4v43Z"/><path d="M236.33.92v9.4h-9.39V.92Zm0,12.08V44.84h-9.39V13Z"/><path d="M257.25,12.33q7.28,0,11.35,4.76A17.69,17.69,0,0,1,272.68,29a17,17,0,0,1-4.23,11.77,14.39,14.39,0,0,1-11.26,4.72,13.73,13.73,0,0,1-10.88-4.67q-4.08-4.66-4.08-12a18.51,18.51,0,0,1,1.84-8.62,15.29,15.29,0,0,1,5.06-5.72A14.18,14.18,0,0,1,257.25,12.33Zm.25,6.15a4.48,4.48,0,0,0-4,2.07q-1.35,2.06-1.35,8.21,0,5.64,1.29,8.1a4.25,4.25,0,0,0,4,2.46,4.54,4.54,0,0,0,3.87-2.1c1-1.39,1.47-4.06,1.47-8q0-6.27-1.3-8.51A4.31,4.31,0,0,0,257.5,18.48Z"/><path d="M289.2,20.31V33.77c0,1.68.25,2.81.75,3.37s1.69.85,3.55.85c.86,0,1.85,0,3-.12v7a40.43,40.43,0,0,1-5.89.69c-3.91,0-6.69-.75-8.32-2.25s-2.46-4.22-2.46-8.15V20.31h-5.05V13h5.58l.76-9.4L289.2,3V13H296v7.31Z"/><path d="M329.58,30.49H309.09c0,.57,0,1.06,0,1.48a6.78,6.78,0,0,0,1.81,5.14,6.06,6.06,0,0,0,4.34,1.74q4.69,0,5.64-5l8.51.63q-3.56,11-14.47,11a16,16,0,0,1-8.08-1.91A15.1,15.1,0,0,1,301.32,38a17,17,0,0,1-2.16-8.77q0-7.59,4.34-12.26a15.31,15.31,0,0,1,21.69-.33Q329.59,21,329.58,30.49ZM309.06,25h11.32c-.3-4.37-2.09-6.56-5.39-6.56Q309.69,18.48,309.06,25Z"/><path d="M363.5,32.89A13.35,13.35,0,0,1,359,42a16.08,16.08,0,0,1-21.12-1c-2.83-3-4.24-6.95-4.24-11.94s1.45-9,4.34-12.12,6.75-4.65,11.58-4.65a13.78,13.78,0,0,1,9.66,3.5,12.78,12.78,0,0,1,4.24,8.77l-8.76.5c-.3-3.82-1.95-5.74-5-5.74q-5.58,0-5.58,9.15c0,4.05.52,6.63,1.56,7.72a5.06,5.06,0,0,0,3.8,1.64q4.35,0,5.2-5.52Z"/><path d="M396.32,44.84h-9.11a23,23,0,0,1-.44-5A13.27,13.27,0,0,1,382,44.38a12.59,12.59,0,0,1-5.4,1.12,10.5,10.5,0,0,1-7.22-2.43,8.25,8.25,0,0,1-2.76-6.53A10.07,10.07,0,0,1,368.23,31a10.56,10.56,0,0,1,5.16-4q3.56-1.42,13-2.13V23.12q0-4.64-4.62-4.64-4.94,0-5.5,4.64l-8.67-.82a9.87,9.87,0,0,1,5.14-7.7,20.46,20.46,0,0,1,9.71-2.27,24.06,24.06,0,0,1,6.11.76A10.22,10.22,0,0,1,393,15.36a7.87,7.87,0,0,1,2.17,3.2,20.76,20.76,0,0,1,.57,5.88V38.88A21.92,21.92,0,0,0,396.32,44.84Zm-10-15.26q-9.84,1-9.84,6a4.3,4.3,0,0,0,1,2.88,3.67,3.67,0,0,0,2.95,1.21,5.16,5.16,0,0,0,4.17-2.06,7.8,7.8,0,0,0,1.68-5.09Z"/><path d="M136.45,51.38V84.15h-6.61V80.36q-2.44,4.29-6.68,4.29a7.37,7.37,0,0,1-6.34-3.27c-1.54-2.19-2.32-5.22-2.32-9.09,0-4,.78-7.19,2.32-9.47a7.63,7.63,0,0,1,6.72-3.42,6.82,6.82,0,0,1,6,3.05V51.38Zm-6.94,18.68q0-5.72-3.47-5.71-4.14,0-4.14,8.06,0,7.19,3.88,7.18a3.36,3.36,0,0,0,2.61-1.3,5.5,5.5,0,0,0,1.12-3.69Z"/><path d="M164.12,73.23h-15.6c0,.43,0,.81,0,1.13a5.18,5.18,0,0,0,1.38,3.91,4.61,4.61,0,0,0,3.3,1.32q3.57,0,4.29-3.82l6.49.48q-2.72,8.4-11,8.4a12.18,12.18,0,0,1-6.16-1.45A11.5,11.5,0,0,1,142.6,79,12.93,12.93,0,0,1,141,72.29a13.18,13.18,0,0,1,3.3-9.34,11.66,11.66,0,0,1,16.51-.25Q164.13,66,164.12,73.23ZM148.5,69.07h8.61c-.22-3.32-1.59-5-4.1-5C150.32,64.08,148.82,65.75,148.5,69.07Z"/><path d="M189.07,72V84.15h-7.81V51.38h12.92a18.31,18.31,0,0,1,6.61.93,9.65,9.65,0,0,1,4.09,3.3,9.37,9.37,0,0,1,1.8,5.83,12.19,12.19,0,0,1-1,4.73A8.46,8.46,0,0,1,203,69.79a10,10,0,0,1-3.39,1.76,22.71,22.71,0,0,1-5.15.43Zm-.27-6h5c1.91,0,3.24-.44,4-1.32a4.46,4.46,0,0,0,1.15-3,4.08,4.08,0,0,0-1.28-3.17,5.65,5.65,0,0,0-3.9-1.17h-5Z"/><path d="M220.09,59.4A10.78,10.78,0,0,1,228.74,63a13.44,13.44,0,0,1,3.1,9.07,12.94,12.94,0,0,1-3.22,9A11,11,0,0,1,220,84.65a10.44,10.44,0,0,1-8.28-3.55A13.36,13.36,0,0,1,208.65,72a14.05,14.05,0,0,1,1.41-6.57,11.54,11.54,0,0,1,3.84-4.35A10.8,10.8,0,0,1,220.09,59.4Zm.19,4.68a3.44,3.44,0,0,0-3.06,1.57q-1,1.57-1,6.26,0,4.29,1,6.17A3.26,3.26,0,0,0,220.24,80a3.44,3.44,0,0,0,2.94-1.6q1.13-1.59,1.12-6.08,0-4.78-1-6.48A3.27,3.27,0,0,0,220.28,64.08Z"/><path d="M254.5,65.76l-5.21,1.39c-.6-2.19-2.18-3.28-4.72-3.28S241,64.6,241,66.05a1.68,1.68,0,0,0,.66,1.39,8.83,8.83,0,0,0,3.45.87,31.81,31.81,0,0,1,6.14,1.27A6.37,6.37,0,0,1,254.37,72a7.26,7.26,0,0,1,1.17,4.2,7.54,7.54,0,0,1-2.85,6.1q-2.85,2.36-8,2.35-9.25,0-11.06-7.17l6-.89q.75,3.25,5.38,3.26a6.52,6.52,0,0,0,3-.63,1.92,1.92,0,0,0,1.22-1.73c0-1.12-.9-1.78-2.71-2q-7.35-.9-9.66-2.81a6.51,6.51,0,0,1-2.32-5.32,7.14,7.14,0,0,1,2.69-5.71c1.79-1.51,4.31-2.26,7.54-2.26A11,11,0,0,1,251,60.91,9.41,9.41,0,0,1,254.5,65.76Z"/><path d="M268.07,65.47V75.72a4.09,4.09,0,0,0,.57,2.57c.38.43,1.28.65,2.7.65.65,0,1.41,0,2.27-.1v5.31a31.13,31.13,0,0,1-4.49.53c-3,0-5.09-.57-6.33-1.72s-1.88-3.21-1.88-6.2V65.47h-3.84V59.9h4.25l.58-7.15,6.17-.48V59.9h5.21v5.57Z"/><path d="M301.51,60.46a9.51,9.51,0,0,0-1.9-.24,2.49,2.49,0,0,0-2.79,2.11,6.51,6.51,0,0,1,1.95,4.61,6.39,6.39,0,0,1-2.87,5.47q-2.86,2-8.27,2a19.2,19.2,0,0,1-3.74-.36,2.12,2.12,0,0,0-1.23,1.85,1.63,1.63,0,0,0,1,1.66,20.81,20.81,0,0,0,5,.6,66.31,66.31,0,0,1,7.71.69,6.33,6.33,0,0,1,3.55,2,5.52,5.52,0,0,1,1.44,3.89,6.86,6.86,0,0,1-3.08,5.64q-3.09,2.31-10.94,2.31c-4.91,0-8.22-.54-9.94-1.6a4.7,4.7,0,0,1-2.56-4c0-2.17,1.38-3.62,4.15-4.38q-3.08-1.53-3.07-4.32,0-3.48,4.84-5.42c-2.86-1.19-4.29-3.16-4.29-5.93a6.48,6.48,0,0,1,3-5.49q3-2.11,8.2-2.11A19.54,19.54,0,0,1,294,60.46a6.74,6.74,0,0,1,1.21-3.4c.67-.89,2.08-1.33,4.24-1.33a10.18,10.18,0,0,1,2,.19ZM282.81,84a1.86,1.86,0,0,0-1.1.58,1.78,1.78,0,0,0-.66,1.39c0,1.09.7,1.77,2.09,2a26,26,0,0,0,4.9.41,16.8,16.8,0,0,0,5.15-.55,1.89,1.89,0,0,0,1.47-1.78q0-.93-1.23-1.44c-.83-.34-3-.5-6.59-.5l-1.44,0a13.8,13.8,0,0,1-1.78-.07A4.09,4.09,0,0,0,282.81,84Zm4.76-20.71a4,4,0,0,0-2.88,1,3.46,3.46,0,0,0-1,2.63c0,2.46,1.31,3.7,3.94,3.7a4.09,4.09,0,0,0,3-1.08,3.66,3.66,0,0,0,.06-5.15A4.05,4.05,0,0,0,287.57,63.27Z"/><path d="M311.42,84.15h-6.94V59.9H311v4.52c1-3.36,2.75-5,5.23-5,.35,0,.78,0,1.29.07v7.06a7.05,7.05,0,0,0-3.39.67,4.85,4.85,0,0,0-2,2.41,11.87,11.87,0,0,0-.77,4.69Z"/><path d="M342.7,84.15h-6.94a17.46,17.46,0,0,1-.34-3.79,9.92,9.92,0,0,1-3.63,3.44,9.47,9.47,0,0,1-4.11.85,8,8,0,0,1-5.5-1.84,6.29,6.29,0,0,1-2.09-5,7.62,7.62,0,0,1,1.22-4.2,8,8,0,0,1,3.93-3c1.8-.73,5.1-1.27,9.87-1.62V67.61q0-3.52-3.52-3.53c-2.5,0-3.9,1.18-4.18,3.53l-6.6-.62a7.47,7.47,0,0,1,3.91-5.86,15.56,15.56,0,0,1,7.39-1.73,18,18,0,0,1,4.66.58,7.82,7.82,0,0,1,3.41,1.72,6,6,0,0,1,1.65,2.44,15.76,15.76,0,0,1,.44,4.48v11A16.65,16.65,0,0,0,342.7,84.15Zm-7.59-11.62q-7.49.75-7.49,4.54a3.27,3.27,0,0,0,.79,2.19,2.8,2.8,0,0,0,2.25.93,4,4,0,0,0,3.17-1.57,5.91,5.91,0,0,0,1.28-3.88Z"/><path d="M368.79,51.38V84.15h-6.6V80.36q-2.44,4.29-6.68,4.29a7.37,7.37,0,0,1-6.34-3.27q-2.32-3.28-2.32-9.09c0-4,.78-7.19,2.32-9.47a7.63,7.63,0,0,1,6.72-3.42,6.8,6.8,0,0,1,6,3.05V51.38Zm-6.94,18.68q0-5.72-3.46-5.71-4.14,0-4.14,8.06,0,7.19,3.87,7.18a3.33,3.33,0,0,0,2.61-1.3,5.44,5.44,0,0,0,1.12-3.69Z"/><path d="M384.74,59.4A10.77,10.77,0,0,1,393.39,63a13.44,13.44,0,0,1,3.1,9.07,12.94,12.94,0,0,1-3.22,9,11,11,0,0,1-8.57,3.58,10.45,10.45,0,0,1-8.29-3.55,13.36,13.36,0,0,1-3.1-9.12,14.05,14.05,0,0,1,1.4-6.57,11.57,11.57,0,0,1,3.85-4.35A10.74,10.74,0,0,1,384.74,59.4Zm.2,4.68a3.45,3.45,0,0,0-3.07,1.57c-.68,1-1,3.14-1,6.26q0,4.29,1,6.17A3.26,3.26,0,0,0,384.89,80a3.44,3.44,0,0,0,2.94-1.6Q389,76.76,389,72.27q0-4.78-1-6.48A3.26,3.26,0,0,0,384.94,64.08Z"/></g></g></svg>