<svg xmlns="http://www.w3.org/2000/svg" viewBox="0 0 707.43 176.7"><defs><style>.cls-1,.cls-3{fill:#fff;}.cls-1,.cls-2{stroke:#000;}.cls-1{stroke-width:3.56px;}.cls-2{stroke-width:4.59px;}</style></defs><title>Recurso 3</title><g id="Capa_2" data-name="Capa 2"><g id="Capa_1-2" data-name="Capa 1"><circle class="cls-1" cx="88.35" cy="88.35" r="86.57"/><path d="M122.58,160.49l-4-7.22a7.5,7.5,0,0,1-1-2.83,3.53,3.53,0,0,1,.7-2.21,6.89,6.89,0,0,1,2.45-2.07,6.73,6.73,0,0,1,2.93-1,3.72,3.72,0,0,1,2.26.58,6.47,6.47,0,0,1,2,2.39l4,7.22-3,1.63-4-7.22a4.89,4.89,0,0,0-.92-1.29,1.43,1.43,0,0,0-1-.35,2.63,2.63,0,0,0-1.3.38,3,3,0,0,0-1.11.94,1.5,1.5,0,0,0-.26,1,5,5,0,0,0,.62,1.49l4,7.23Z"/><path d="M106.36,152.35l2.73-.94,1.8,5.21a7.35,7.35,0,0,0,.52,1.27,1.07,1.07,0,0,0,.56.46,1.1,1.1,0,0,0,.8,0c1-.33,1.2-1.21.71-2.63l-1.8-5.2,2.74-1,3.19,9.28-2.54.87-.54-1.57a3.78,3.78,0,0,1-.75,1.88,3.12,3.12,0,0,1-1.22.78,3.31,3.31,0,0,1-2.38,0,3.92,3.92,0,0,1-1.77-2.52Z"/><path d="M103.66,162.93l-2.09-9.58,2.83-.62,2.09,9.58Zm.8,3.64-.62-2.83,2.83-.62.61,2.83Z"/><path d="M93,164.38l2.24-10.12L97.5,154l4.45,9.37-3,.33-2.58-6-1.22,6.39Z"/><path d="M82.44,158.84l6.31.16c0-.18,0-.33,0-.46a2.11,2.11,0,0,0-.52-1.6,1.91,1.91,0,0,0-1.32-.57,1.65,1.65,0,0,0-1.78,1.51l-2.61-.27a4.36,4.36,0,0,1,4.54-3.28,4.84,4.84,0,0,1,2.47.65,4.57,4.57,0,0,1,1.65,1.75,5.92,5.92,0,0,1-.83,6.46,4.73,4.73,0,0,1-6.68-.06A5.72,5.72,0,0,1,82.44,158.84Zm6.28,1.84-3.49-.09c.06,1.35.59,2,1.61,2.06S88.55,162,88.72,160.68Z"/><path d="M78.38,153.72l2.78.42-1.47,9.7-2.63-.4.28-1.8c-.61,1.28-1.41,1.85-2.4,1.7l-.52-.11.43-2.82a3,3,0,0,0,1.4-.07,2,2,0,0,0,.94-.84,4.68,4.68,0,0,0,.59-1.83Z"/><path d="M65.51,158.3l2.18,0a1.78,1.78,0,0,0,1.5,1.8c.93.25,1.48.1,1.64-.47a.7.7,0,0,0-.11-.61,3.54,3.54,0,0,0-1.25-.71,12.55,12.55,0,0,1-2.26-1.16,2.55,2.55,0,0,1-1-1.28,3,3,0,0,1,0-1.77A3,3,0,0,1,68,152.05a4.89,4.89,0,0,1,3.36-.06q3.61,1,3.54,4l-2.44-.3c0-.9-.55-1.52-1.75-1.85a2.55,2.55,0,0,0-1.24-.08.79.79,0,0,0-.66.54c-.12.44.16.8.84,1.07a8.36,8.36,0,0,1,3.47,2.14,2.66,2.66,0,0,1,.33,2.32,2.9,2.9,0,0,1-1.67,1.94,4.61,4.61,0,0,1-3.18.07,4.47,4.47,0,0,1-2.23-1.25A3.85,3.85,0,0,1,65.51,158.3Z"/><path d="M58.24,162l1-2.69,2.7,1.06-1.06,2.69Zm1.36-3.46,3.59-9.12,2.69,1.06-3.59,9.12Z"/><path d="M47.74,156.5,54,144.8l2.36,1.25-.72,1.36a3,3,0,0,1,3.2-.27,3,3,0,0,1,1.64,2.38,6.26,6.26,0,0,1-.9,3.69,6.75,6.75,0,0,1-2.63,2.94,3.08,3.08,0,0,1-3.05-.06,2.75,2.75,0,0,1-1.55-2.22l-2.1,3.95Zm6-5.35c-.73,1.36-.67,2.26.15,2.7,1,.52,2-.17,3-2.09q1.37-2.56,0-3.3a1.38,1.38,0,0,0-1.18,0,2.24,2.24,0,0,0-1.11,1.11Z"/><path d="M45.55,138.65l2.24,1.68a6.6,6.6,0,0,1-.81,1.31,4.07,4.07,0,0,1,2-.23,3.81,3.81,0,0,1,1.54.73,3.23,3.23,0,0,1,1.33,1.93,2.59,2.59,0,0,1-.53,2.12,3.18,3.18,0,0,1-1.42,1.06,3.3,3.3,0,0,1-2,0,15.4,15.4,0,0,1-3.59-1.88l-.34.45a1.25,1.25,0,0,0,.28,2,1.49,1.49,0,0,0,2.21-.12l2,1.81a3,3,0,0,1-2.68.94A6.29,6.29,0,0,1,43,149.22a7.18,7.18,0,0,1-1.37-1.32,3,3,0,0,1-.68-1.39,2.47,2.47,0,0,1,.05-1.19,7.08,7.08,0,0,1,.95-1.55l2.68-3.55A7,7,0,0,0,45.55,138.65Zm-.37,5.6c1.73,1.05,2.91,1.17,3.52.35a1.29,1.29,0,0,0,.28-.9,1.15,1.15,0,0,0-.5-.85,1.62,1.62,0,0,0-1.41-.26,2.4,2.4,0,0,0-1.35.94Z"/><path d="M29,140.73l9.51-9.22,1.86,1.91-1.1,1.07a3.06,3.06,0,0,1,4,3.5,6.33,6.33,0,0,1-2,3.23,6.77,6.77,0,0,1-3.41,2,3.09,3.09,0,0,1-2.88-1,2.73,2.73,0,0,1-.79-2.59l-3.22,3.12Zm7.38-3.24c-1.11,1.07-1.34,1.94-.69,2.62s2,.44,3.51-1.07q2.09-2,1-3.15A1.34,1.34,0,0,0,39,135.5a2.2,2.2,0,0,0-1.39.71Z"/><path d="M17.73,124.17l11.43-6.71,1.35,2.28-5.09,9,.37-.24a5.35,5.35,0,0,1,.47-.33l6.84-4,1.23,2.09L22.9,133l-1.69-2.89,4.45-7.85c-.32.23-.56.4-.73.5l-6,3.51Z"/><path d="M25.36,107.66l1,2.62A6.7,6.7,0,0,1,25,111a4.11,4.11,0,0,1,1.83.88,4,4,0,0,1,.91,1.44,3.28,3.28,0,0,1,.09,2.34,2.57,2.57,0,0,1-1.58,1.51,3,3,0,0,1-3.47-.92,15.08,15.08,0,0,1-2-3.51l-.53.2a1.27,1.27,0,0,0-.83,1.84,1.5,1.5,0,0,0,1.94,1.08L22,118.4a3,3,0,0,1-2.78-.65,6.14,6.14,0,0,1-1.71-2.54,7.13,7.13,0,0,1-.45-1.85,3.11,3.11,0,0,1,.17-1.54,2.38,2.38,0,0,1,.68-1,6.65,6.65,0,0,1,1.63-.81l4.16-1.57A7.24,7.24,0,0,0,25.36,107.66Zm-3.31,4.53q1.35,2.73,2.79,2.18a1.26,1.26,0,0,0,.71-.61,1.11,1.11,0,0,0,0-1,1.61,1.61,0,0,0-1-1,2.42,2.42,0,0,0-1.65.07Z"/><path d="M19.51,98.33a4.16,4.16,0,0,1,3,.76,4.57,4.57,0,0,1,1.7,2.83,4.49,4.49,0,0,1-.64,3.6,5.13,5.13,0,0,1-3.32,2,5.28,5.28,0,0,1-3.94-.53,4.62,4.62,0,0,1-2.14-3.19,4.25,4.25,0,0,1,.43-3.14A4,4,0,0,1,17,98.86l.72,2.61c-1.14.34-1.61,1-1.41,1.87.24,1.12,1.27,1.49,3.11,1.09a3.88,3.88,0,0,0,2.23-1,1.59,1.59,0,0,0,.25-1.25c-.19-.88-.85-1.28-2-1.22Z"/><path d="M9.36,94.81l2.88-.29.29,2.88-2.88.29Zm3.7-.37,9.76-1,.29,2.88-9.76,1Z"/><path d="M12.64,87.28a4.37,4.37,0,0,1,1.52-3.47,5.51,5.51,0,0,1,3.7-1.2A5.23,5.23,0,0,1,21.46,84a4.44,4.44,0,0,1,1.4,3.49,4.22,4.22,0,0,1-1.49,3.33A5.34,5.34,0,0,1,17.66,92,5.76,5.76,0,0,1,15,91.38a4.82,4.82,0,0,1-1.74-1.58A4.49,4.49,0,0,1,12.64,87.28Zm1.9,0a1.35,1.35,0,0,0,.61,1.24,5.09,5.09,0,0,0,2.53.46,5.64,5.64,0,0,0,2.5-.36A1.3,1.3,0,0,0,21,87.36a1.4,1.4,0,0,0-.63-1.2,4.63,4.63,0,0,0-2.46-.5,5.78,5.78,0,0,0-2.62.36A1.32,1.32,0,0,0,14.54,87.24Z"/><path d="M24.33,73l-.49,2.85-5.42-.93a7.38,7.38,0,0,0-1.37-.16,1.1,1.1,0,0,0-.68.27,1.13,1.13,0,0,0-.38.7c-.17,1,.48,1.63,2,1.89l5.43.93-.49,2.85-9.67-1.66L13.68,77l1.63.28A3.79,3.79,0,0,1,14,75.76a3,3,0,0,1-.09-1.45,3.29,3.29,0,0,1,1.12-2.09c.59-.48,1.61-.59,3.06-.34Z"/><path d="M27.53,63l-.9,2.66a6.23,6.23,0,0,1-1.5-.36A4.11,4.11,0,0,1,26,67.17a3.88,3.88,0,0,1-.21,1.69,3.25,3.25,0,0,1-1.42,1.87,2.55,2.55,0,0,1-2.17.16,3.19,3.19,0,0,1-1.46-1,3.25,3.25,0,0,1-.64-1.9,15.06,15.06,0,0,1,.65-4l-.53-.18a1.26,1.26,0,0,0-1.81.9,1.5,1.5,0,0,0,.81,2.06l-1.09,2.45A3,3,0,0,1,16.38,67a6.38,6.38,0,0,1,.29-3.06,7.51,7.51,0,0,1,.82-1.71A3.23,3.23,0,0,1,18.6,61.1a2.47,2.47,0,0,1,1.15-.32,6.64,6.64,0,0,1,1.77.41l4.21,1.42A6.22,6.22,0,0,0,27.53,63Zm-5.44,1.41c-.45,2-.19,3.13.77,3.46a1.35,1.35,0,0,0,.95,0,1.12,1.12,0,0,0,.64-.74,1.57,1.57,0,0,0-.19-1.42,2.36,2.36,0,0,0-1.32-1Z"/><path d="M28.37,61.39l-12-5.66,1.24-2.61,12,5.65Z"/><path d="M50.41,18.63l4.46,6.94a7.48,7.48,0,0,1,1.23,2.75,3.53,3.53,0,0,1-.56,2.26,6.84,6.84,0,0,1-2.3,2.23A6.84,6.84,0,0,1,50.37,34a3.8,3.8,0,0,1-2.29-.43A6.58,6.58,0,0,1,46,31.29L41.5,24.35l2.84-1.82,4.46,6.94a5.05,5.05,0,0,0,1,1.23,1.45,1.45,0,0,0,1,.28,2.63,2.63,0,0,0,1.27-.46,3.07,3.07,0,0,0,1-1,1.43,1.43,0,0,0,.2-1A4.83,4.83,0,0,0,52.63,27l-4.46-7Z"/><path d="M67.15,25.67l-2.67,1.12-2.13-5.08a8.79,8.79,0,0,0-.6-1.23,1.19,1.19,0,0,0-.6-.43,1.1,1.1,0,0,0-.79.06q-1.41.59-.54,2.67L62,27.85,59.29,29l-3.8-9,2.48-1,.64,1.53a3.74,3.74,0,0,1,.63-1.92,3.12,3.12,0,0,1,1.16-.86,3.3,3.3,0,0,1,2.37-.18,3.92,3.92,0,0,1,1.94,2.4Z"/><path d="M68.09,11.37l.8,2.77L66.11,15l-.8-2.78Zm1,3.57,2.73,9.42-2.78.8-2.73-9.42Z"/><path d="M79.66,12.78,78.09,23l-2.22.4-5.06-9,3-.54,3,5.78.8-6.46Z"/><path d="M90.59,17.62l-6.3.26v.45a2.09,2.09,0,0,0,.63,1.56,1.84,1.84,0,0,0,1.35.48A1.65,1.65,0,0,0,88,18.76l2.62.08a4.34,4.34,0,0,1-4.31,3.58,4.93,4.93,0,0,1-2.51-.48A4.7,4.7,0,0,1,82,20.29a5.21,5.21,0,0,1-.78-2.67,5.36,5.36,0,0,1,1.18-3.83,4.74,4.74,0,0,1,6.68-.37A5.76,5.76,0,0,1,90.59,17.62ZM84.21,16.2l3.48-.15q-.21-2-1.74-2T84.21,16.2Z"/><path d="M95,22.46l-2.79-.24L93,12.44l2.64.23-.15,1.82c.52-1.32,1.28-1.94,2.28-1.85a4.19,4.19,0,0,1,.52.07l-.24,2.84a2.87,2.87,0,0,0-1.39.16,1.93,1.93,0,0,0-.89.9,4.93,4.93,0,0,0-.47,1.87Z"/><path d="M107.51,17l-2.18.12a1.76,1.76,0,0,0-1.61-1.69c-1-.19-1.48,0-1.6.57a.68.68,0,0,0,.15.61,3.48,3.48,0,0,0,1.29.63,12.71,12.71,0,0,1,2.33,1,2.54,2.54,0,0,1,1,1.22,2.87,2.87,0,0,1,.12,1.76,3,3,0,0,1-1.63,2.18,4.87,4.87,0,0,1-3.34.28c-2.45-.5-3.71-1.75-3.8-3.75l2.46.14c0,.91.64,1.48,1.86,1.74a2.75,2.75,0,0,0,1.25,0,.77.77,0,0,0,.62-.58c.09-.45-.21-.78-.91-1a8.37,8.37,0,0,1-3.6-1.91,2.61,2.61,0,0,1-.48-2.29A2.9,2.9,0,0,1,101,14a4.63,4.63,0,0,1,3.17-.28,4.4,4.4,0,0,1,2.31,1.11A3.77,3.77,0,0,1,107.51,17Z"/><path d="M113.38,16.42l-3,9.34-2.76-.88,3-9.34Zm1.14-3.54-.89,2.75-2.75-.88.88-2.75Z"/><path d="M125.38,17.68l-5.45,12.09-2.44-1.1.63-1.4a3,3,0,0,1-3.18.47,3,3,0,0,1-1.79-2.26,6.31,6.31,0,0,1,.66-3.74,6.75,6.75,0,0,1,2.43-3.1,3.09,3.09,0,0,1,3.05-.15A2.77,2.77,0,0,1,121,20.61l1.84-4.08Zm-5.67,5.74c.64-1.41.53-2.3-.33-2.69s-2,.3-2.86,2.29c-.8,1.76-.72,2.86.23,3.29a1.4,1.4,0,0,0,1.18,0,2.26,2.26,0,0,0,1-1.18Z"/><path d="M128.74,35.35l-2.35-1.54a6.53,6.53,0,0,1,.72-1.36,3.93,3.93,0,0,1-2,.36,3.81,3.81,0,0,1-1.58-.62,3.2,3.2,0,0,1-1.45-1.84,2.52,2.52,0,0,1,.38-2.15,3.21,3.21,0,0,1,1.35-1.15,3.29,3.29,0,0,1,2-.15,15.14,15.14,0,0,1,3.7,1.64l.31-.47a1.27,1.27,0,0,0-.41-2,1.5,1.5,0,0,0-2.2.27l-2.1-1.67a3,3,0,0,1,2.62-1.12,6.28,6.28,0,0,1,2.89,1.05,7.65,7.65,0,0,1,1.45,1.23,3.15,3.15,0,0,1,.77,1.34,2.41,2.41,0,0,1,0,1.19A6.38,6.38,0,0,1,132,30l-2.44,3.73A6.56,6.56,0,0,0,128.74,35.35Zm0-5.62q-2.7-1.39-3.54-.12a1.34,1.34,0,0,0-.22.92,1.11,1.11,0,0,0,.56.81,1.57,1.57,0,0,0,1.42.17,2.42,2.42,0,0,0,1.29-1Z"/><path d="M145.14,32.14,136.26,42l-2-1.79,1-1.14a3,3,0,0,1-3.17-.52,3,3,0,0,1-1-2.7,6.29,6.29,0,0,1,1.76-3.36,6.77,6.77,0,0,1,3.27-2.21,3.07,3.07,0,0,1,2.94.79,2.75,2.75,0,0,1,1,2.53l3-3.32ZM138,35.87c1-1.15,1.2-2,.5-2.66s-2-.31-3.43,1.3c-1.29,1.44-1.56,2.51-.78,3.21a1.39,1.39,0,0,0,1.14.32,2.29,2.29,0,0,0,1.34-.81Z"/><path d="M157.45,48.13l-11.07,7.28-1.46-2.21,4.63-9.26-.36.26c-.18.15-.33.26-.46.35l-6.63,4.36-1.33-2,11.08-7.29,1.84,2.8-4.06,8.07c.31-.25.54-.43.71-.54l5.79-3.81Z"/><path d="M150.92,64.94l-1.17-2.55a7.06,7.06,0,0,1,1.34-.76,4.12,4.12,0,0,1-1.88-.76,3.86,3.86,0,0,1-1-1.37,3.22,3.22,0,0,1-.24-2.33,2.53,2.53,0,0,1,1.48-1.61,3.09,3.09,0,0,1,1.75-.26,3.3,3.3,0,0,1,1.77,1,15.08,15.08,0,0,1,2.25,3.36l.51-.24a1.25,1.25,0,0,0,.71-1.88,1.5,1.5,0,0,0-2-1L153.56,54a3,3,0,0,1,2.81.46,6.31,6.31,0,0,1,1.88,2.43,7.14,7.14,0,0,1,.57,1.81,3.28,3.28,0,0,1-.06,1.55,2.56,2.56,0,0,1-.62,1,6.7,6.7,0,0,1-1.58.91L152.51,64A6.85,6.85,0,0,0,150.92,64.94Zm3-4.74c-1-1.75-2-2.42-2.93-2a1.33,1.33,0,0,0-.67.65,1.12,1.12,0,0,0,0,1,1.6,1.6,0,0,0,1.11.9,2.38,2.38,0,0,0,1.64-.18Z"/><path d="M157.37,73.86a4.13,4.13,0,0,1-3.08-.55,4.49,4.49,0,0,1-1.88-2.72A4.44,4.44,0,0,1,152.8,67,5.16,5.16,0,0,1,156,64.7a5.33,5.33,0,0,1,4,.27,4.64,4.64,0,0,1,2.35,3,4.26,4.26,0,0,1-.22,3.16,4,4,0,0,1-2.24,2l-.89-2.56c1.11-.41,1.54-1.06,1.28-2-.31-1.1-1.37-1.4-3.18-.88-1.2.34-1.92.71-2.15,1.11a1.52,1.52,0,0,0-.17,1.26q.36,1.29,2.07,1.08Z"/><path d="M164.06,77.31l-9.68,1.6-.47-2.85,9.67-1.61Zm3.67-.61-2.86.47-.47-2.85,2.85-.48Z"/><path d="M165,84.46A4.37,4.37,0,0,1,163.66,88a5.43,5.43,0,0,1-3.61,1.44,5.23,5.23,0,0,1-3.68-1.12,4.46,4.46,0,0,1-1.62-3.4A4.26,4.26,0,0,1,156,81.52a5.42,5.42,0,0,1,3.63-1.43,5.63,5.63,0,0,1,2.68.43A4.66,4.66,0,0,1,164.16,82,4.37,4.37,0,0,1,165,84.46Zm-1.89.17a1.39,1.39,0,0,0-.69-1.21,5.16,5.16,0,0,0-2.55-.29,5.73,5.73,0,0,0-2.47.52,1.3,1.3,0,0,0-.7,1.28,1.38,1.38,0,0,0,.7,1.15,4.57,4.57,0,0,0,2.49.34,5.85,5.85,0,0,0,2.59-.53A1.32,1.32,0,0,0,163.06,84.63Z"/><path d="M154.22,99.49l.31-2.88,5.47.58a7.29,7.29,0,0,0,1.37.06,1.12,1.12,0,0,0,.67-.31,1.1,1.1,0,0,0,.33-.72c.11-1-.59-1.6-2.08-1.76l-5.48-.57.31-2.88,9.75,1-.28,2.67-1.65-.17A3.67,3.67,0,0,1,164.32,96a3,3,0,0,1,.19,1.44,3.32,3.32,0,0,1-1,2.16,3.93,3.93,0,0,1-3,.54Z"/><path d="M151.68,109.61l.72-2.71a7.08,7.08,0,0,1,1.52.26,3.94,3.94,0,0,1-1-1.77,3.81,3.81,0,0,1,.09-1.7,3.25,3.25,0,0,1,1.3-2,2.52,2.52,0,0,1,2.16-.3,3.1,3.1,0,0,1,1.51.91,3.17,3.17,0,0,1,.77,1.85,15,15,0,0,1-.39,4l.54.15a1.27,1.27,0,0,0,1.75-1,1.5,1.5,0,0,0-.94-2l.93-2.51a3,3,0,0,1,1.88,2.13,6.46,6.46,0,0,1-.09,3.08,7.9,7.9,0,0,1-.71,1.76,3.17,3.17,0,0,1-1,1.15,2.4,2.4,0,0,1-1.13.39,6.14,6.14,0,0,1-1.79-.29l-4.3-1.14A6.76,6.76,0,0,0,151.68,109.61Zm5.33-1.76c.33-2,0-3.13-1-3.4a1.38,1.38,0,0,0-.94.08,1.17,1.17,0,0,0-.59.79,1.59,1.59,0,0,0,.28,1.4,2.41,2.41,0,0,0,1.39.9Z"/><path d="M151,111.27l12.34,4.85-1.06,2.69L149.9,114Z"/><circle class="cls-2" cx="88.43" cy="89.48" r="57.59"/><path class="cls-3" d="M104.31,71.24l10.62-6.5,9.12-2.09Q117.3,92.29,117.3,107c0,.86,0,1.63,0,2.31a91,91,0,0,1-14,7.69q.15-10.09,4.43-30.85A57.94,57.94,0,0,1,89.9,107.82Q77.88,117,66.16,117a22.16,22.16,0,0,1-6.44-.86,16.72,16.72,0,0,1-4.62-2,6.93,6.93,0,0,1-2.31-2.28,6.49,6.49,0,0,1-.61-3,15.53,15.53,0,0,1,3.2-9,53.07,53.07,0,0,1,3.43-4.16q2.4-2.67,6.35-6.79t8.23-8.33a45.75,45.75,0,0,0,6.87-8A8.76,8.76,0,0,1,81.19,71a1.09,1.09,0,0,0,.24-.49c0-.21-.31-.4-.92-.59a9.4,9.4,0,0,0-2.1-.24q-4.06,0-21.89,7.39l2.68-6.1c2.67-1.62,5-3,7-4.13s3.94-2.14,5.75-3,3.26-1.53,4.33-1.93a28.58,28.58,0,0,1,9.73-2q9.27,0,9.27,3.7,0,2.77-4.31,7.91a46.91,46.91,0,0,1-3.44,3.65c-1.38,1.35-3,2.84-4.92,4.5s-4.09,3.47-6.58,5.46q-2.31,1.81-4,3.24c-1.13.94-1.79,1.51-2,1.69q-1.26,1.17-4.87,5t-3.81,4.19a1.45,1.45,0,0,0-.25.7c0,.93,1.3,2.35,3.91,4.28a13.9,13.9,0,0,0,4.73,2.19,24,24,0,0,0,6.08.71q12,0,19.77-9.79T104.31,71.24Z"/><path class="cls-3" d="M245.8,12.6V51.41q0,9.41-2.35,14t-8.68,7.53q-6.33,3-16.19,2.95t-15.69-2.65a18.88,18.88,0,0,1-8.73-7.53q-2.91-4.89-2.9-14.29V12.6h17.36V51.41a21.65,21.65,0,0,0,.93,7.39,7.14,7.14,0,0,0,3.7,3.77A15.11,15.11,0,0,0,220.08,64a16.76,16.76,0,0,0,7.33-1.37A7.12,7.12,0,0,0,231.16,59q.93-2.25.93-7.55V12.6Z"/><path class="cls-3" d="M302.25,74.92H287.33V49a33.5,33.5,0,0,0-.4-6.43,5.09,5.09,0,0,0-1.95-3,6.17,6.17,0,0,0-3.9-1.21q-7.86,0-7.86,10.59V74.92H258.31V28.81h13.86v7.81Q275.62,31,279,29.45a16.55,16.55,0,0,1,7.25-1.6q7.22,0,11.61,3.54t4.41,13.9Z"/><path class="cls-3" d="M329.47,11.32V24.93H314.56V11.32Zm0,17.49V74.92H314.56V28.81Z"/><path class="cls-3" d="M381.51,28.81,364.19,74.92h-11.6L335.22,28.81h15.5L360.47,58l10-29.22Z"/><path class="cls-3" d="M432.1,54.15H399.58c0,.82-.05,1.53-.05,2.14,0,3.29,1,5.77,2.87,7.44a10.09,10.09,0,0,0,6.88,2.52c5,0,8-2.43,9-7.26l13.51.91q-5.65,16-23,16A27.42,27.42,0,0,1,396,73.12a22.62,22.62,0,0,1-12.14-20.75q0-11,6.88-17.76t17.69-6.76a24.14,24.14,0,0,1,16.74,6.28Q432.11,40.4,432.1,54.15Zm-32.57-7.9h18q-.71-9.49-8.56-9.5Q400.53,36.75,399.53,46.25Z"/><path class="cls-3" d="M456,74.92H441.51V28.81h13.66v8.58q3.15-9.59,10.91-9.59c.73,0,1.63.05,2.7.14V41.36a16,16,0,0,0-7.08,1.28,9.53,9.53,0,0,0-4.13,4.59,20.86,20.86,0,0,0-1.6,8.93Z"/><path class="cls-3" d="M515.82,40,505,42.6q-1.9-6.26-9.86-6.26-7.5,0-7.5,4.16A3.08,3.08,0,0,0,489,43.13c.92.66,3.31,1.21,7.18,1.67A70.31,70.31,0,0,1,509,47.21a12.53,12.53,0,0,1,9,12.6A13.85,13.85,0,0,1,512,71.4q-5.92,4.48-16.59,4.48-19.31,0-23.06-13.65L485,60.54q1.55,6.21,11.2,6.21a14.49,14.49,0,0,0,6.26-1.22q2.55-1.2,2.55-3.27c0-2.13-1.88-3.4-5.65-3.79Q484,56.75,479.17,53.12A11.93,11.93,0,0,1,474.34,43a13.13,13.13,0,0,1,5.6-10.87q5.61-4.29,15.71-4.29,8,0,12.81,2.88A18.1,18.1,0,0,1,515.82,40Z"/><path class="cls-3" d="M541.39,11.32V24.93H526.48V11.32Zm0,17.49V74.92H526.48V28.81Z"/><path class="cls-3" d="M596.64,12.6V74.92H582.88V67.71q-5.11,8.16-13.94,8.17a15.81,15.81,0,0,1-13.2-6.23q-4.85-6.24-4.84-17.28,0-11.5,4.84-18t14-6.51q8.06,0,12.42,5.8v-21ZM582.17,48.12q0-10.86-7.22-10.86-8.64,0-8.64,15.33,0,13.66,8.08,13.66a7.3,7.3,0,0,0,5.45-2.47c1.56-1.64,2.33-4,2.33-7Z"/><path class="cls-3" d="M653,74.92H638.57a29.93,29.93,0,0,1-.7-7.21q-3.79,4.92-7.57,6.55a21.51,21.51,0,0,1-8.57,1.62q-7.1,0-11.46-3.52a11.48,11.48,0,0,1-4.38-9.45,13.68,13.68,0,0,1,2.55-8q2.55-3.64,8.2-5.73t20.58-3.08V43.46q0-6.7-7.33-6.71c-5.23,0-8.13,2.24-8.73,6.71L607.4,42.28a14.31,14.31,0,0,1,8.15-11.14A35,35,0,0,1,631,27.85a41.38,41.38,0,0,1,9.71,1.1,16.8,16.8,0,0,1,7.11,3.28,11.46,11.46,0,0,1,3.45,4.64c.6,1.63.9,4.46.9,8.51V66.29C652.13,70.31,652.43,73.18,653,74.92Zm-15.81-22.1q-15.62,1.43-15.61,8.63a5.89,5.89,0,0,0,1.64,4.18,6.12,6.12,0,0,0,4.69,1.76,8.51,8.51,0,0,0,6.61-3A10.7,10.7,0,0,0,637.22,57Z"/><path class="cls-3" d="M707.43,12.6V74.92H693.67V67.71q-5.11,8.16-13.94,8.17a15.81,15.81,0,0,1-13.2-6.23q-4.85-6.24-4.84-17.28,0-11.5,4.84-18t14-6.51q8.06,0,12.42,5.8v-21ZM693,48.12q0-10.86-7.22-10.86-8.64,0-8.64,15.33,0,13.66,8.08,13.66a7.3,7.3,0,0,0,5.45-2.47c1.56-1.64,2.33-4,2.33-7Z"/><path class="cls-3" d="M244.5,99.43v62.32H230.85l-26.73-42.09c0,1.06.06,1.76.1,2.1a22.88,22.88,0,0,1,.2,2.69v37.3H192V99.43H209.2l23.24,36.75a41.35,41.35,0,0,1-.3-4.15V99.43Z"/><path class="cls-3" d="M301.6,161.75H287.13a30.49,30.49,0,0,1-.7-7.22q-3.8,4.93-7.57,6.56a21.51,21.51,0,0,1-8.57,1.62q-7.1,0-11.46-3.52a11.47,11.47,0,0,1-4.37-9.45,13.68,13.68,0,0,1,2.55-8q2.53-3.65,8.19-5.73t20.58-3.08v-2.65q0-6.7-7.33-6.71-7.83,0-8.73,6.71L256,129.11A14.31,14.31,0,0,1,264.11,118a35,35,0,0,1,15.42-3.29,41,41,0,0,1,9.71,1.1,16.81,16.81,0,0,1,7.1,3.28,11.46,11.46,0,0,1,3.45,4.64q.9,2.43.9,8.51v20.91C300.69,157.14,301,160,301.6,161.75Zm-15.82-22.1q-15.61,1.42-15.61,8.63a5.9,5.9,0,0,0,1.65,4.18,6.09,6.09,0,0,0,4.68,1.75,8.48,8.48,0,0,0,6.61-3,10.66,10.66,0,0,0,2.67-7.37Z"/><path class="cls-3" d="M357.44,144.44a18.87,18.87,0,0,1-7.08,13.22q-6.23,5-16.09,5.05-10.71,0-17.44-6.46T310.1,139q0-10.83,6.88-17.56t18.39-6.73q9.25,0,15.34,5.07a18,18,0,0,1,6.73,12.69l-13.91.73q-.7-8.31-7.91-8.31-8.85,0-8.85,13.24,0,8.81,2.47,11.18a8.36,8.36,0,0,0,6,2.38q6.92,0,8.26-8Z"/><path class="cls-3" d="M380.36,98.15v13.61H365.45V98.15Zm0,17.49v46.11H365.45V115.64Z"/><path class="cls-3" d="M413.56,114.68q11.55,0,18,6.89t6.48,17.26a23.29,23.29,0,0,1-6.73,17q-6.72,6.83-17.87,6.83-10.8,0-17.27-6.76t-6.47-17.35a24.83,24.83,0,0,1,2.92-12.48,23,23,0,0,1,8-8.29Q405.76,114.68,413.56,114.68Zm.4,8.9a7.34,7.34,0,0,0-6.38,3q-2.16,3-2.15,11.89,0,8.17,2.05,11.74a6.85,6.85,0,0,0,6.38,3.56,7.38,7.38,0,0,0,6.14-3q2.34-3,2.34-11.57,0-9.09-2.07-12.33A7,7,0,0,0,414,123.58Z"/><path class="cls-3" d="M491.4,161.75H476.49V135.86a34.37,34.37,0,0,0-.4-6.43,5.19,5.19,0,0,0-1.95-3,6.22,6.22,0,0,0-3.91-1.21q-7.85,0-7.85,10.59v25.89H447.46V115.64h13.87v7.8q3.45-5.56,6.8-7.16a16.62,16.62,0,0,1,7.26-1.6q7.2,0,11.61,3.54t4.4,13.9Z"/><path class="cls-3" d="M547.8,161.75H533.33a30.49,30.49,0,0,1-.7-7.22q-3.79,4.93-7.57,6.56a21.49,21.49,0,0,1-8.56,1.62q-7.1,0-11.47-3.52a11.47,11.47,0,0,1-4.37-9.45,13.68,13.68,0,0,1,2.55-8c1.69-2.43,4.43-4.34,8.19-5.73S522,133.61,532,132.94v-2.65q0-6.7-7.33-6.71-7.83,0-8.73,6.71l-13.76-1.18A14.3,14.3,0,0,1,510.32,118a35,35,0,0,1,15.41-3.29,41,41,0,0,1,9.71,1.1,16.81,16.81,0,0,1,7.1,3.28A11.58,11.58,0,0,1,546,123.7q.9,2.43.9,8.51v20.91C546.9,157.14,547.2,160,547.8,161.75ZM532,139.65q-15.6,1.42-15.61,8.63a5.9,5.9,0,0,0,1.65,4.18,6.1,6.1,0,0,0,4.69,1.75,8.46,8.46,0,0,0,6.6-3,10.66,10.66,0,0,0,2.67-7.37Z"/><path class="cls-3" d="M559.21,161.75V99.43h14.91v62.32Z"/></g></g></svg>